<svg xmlns="http://www.w3.org/2000/svg" width="62" height="91" viewBox="0 0 62 91">
    <g fill="none" fill-rule="evenodd">
        <path fill="#373737" fill-rule="nonzero" d="M51.095 70.723l.35-.309a.665.665 0 0 0 .141-.14c.182-.21 4.275-4.94 5.83-8.575h.744A3.849 3.849 0 0 0 62 57.854v-6.077a3.849 3.849 0 0 0-3.84-3.846h-.827c-1.276-3.326-3.448-6.33-6.336-8.771-.42-1.502-.112-3.102.94-4.772.588-.94.588-2.12-.015-3.06a2.83 2.83 0 0 0-2.76-1.305c-4.051.505-6.476 2.344-7.892 4.056a26.709 26.709 0 0 0-4.092-.8 1.388 1.388 0 0 0-1.542 1.221 1.39 1.39 0 0 0 1.22 1.544c1.54.182 3.069.52 4.526.982a1.402 1.402 0 0 0 1.57-.547c.953-1.417 2.873-3.214 6.546-3.677.028 0 .056 0 .084.042.028.042.014.07 0 .084-1.458 2.33-1.892 4.758-1.248 7.032.014.407.197.786.519 1.038 2.957 2.386 5.102 5.417 6.195 8.772.182.575.729.954 1.318.954h1.794c.588 0 1.065.477 1.065 1.067v6.077c0 .589-.477 1.066-1.065 1.066h-1.696c-.603 0-1.15.393-1.332.983-.785 2.568-4.233 6.919-5.578 8.476l-.309.267c-2.887 2.61-3.181 5.698-3.195 6.624v1.951h-8.003v-1.88c0-.393-.169-.772-.463-1.039a1.386 1.386 0 0 0-1.08-.35c-2.046.21-4.106.182-6.096-.085a1.356 1.356 0 0 0-1.094.337 1.377 1.377 0 0 0-.476 1.052v1.951h-8.003v-.547-.056c-.07-1.474-.533-5.207-3.448-8.21-1.374-1.418-2.607-3.299-3.672-5.572-.014-.014-.014-.028-.028-.056a16.558 16.558 0 0 1-1.43-3.832l-.014-.056c0-.014-.014-.028-.014-.042-.505-1.684-.449-3.803-.449-3.817v-.042c0-.927.084-1.867.225-2.78a1.385 1.385 0 0 0-1.136-1.6 1.384 1.384 0 0 0-1.597 1.138 18.885 18.885 0 0 0-.267 3.213c-.014.281-.042 2.639.56 4.674a20.166 20.166 0 0 0 1.64 4.379c1.178 2.554 2.594 4.673 4.178 6.315 2.228 2.302 2.607 5.193 2.663 6.372v.575c0 .056 0 .099.014.183.098 1.417 1.29 2.54 2.705 2.54h8.115c1.5 0 2.72-1.221 2.72-2.723v-.463c1.219.098 2.424.112 3.657.056v.407A2.723 2.723 0 0 0 37.977 80h8.115c1.5 0 2.719-1.221 2.719-2.723v-1.979c.028-.435.182-2.68 2.284-4.575z"/>
        <ellipse cx="30" cy="89" fill="#DFDFDF" rx="30" ry="2"/>
        <path fill="#EE1E4C" fill-rule="nonzero" d="M3 31.5C3 38.937 9.046 45 16.5 45 23.937 45 30 38.954 30 31.5 30 24.063 23.954 18 16.5 18 9.063 18 3 24.046 3 31.5zm23.72 0c0 5.632-4.588 10.22-10.22 10.22-5.632 0-10.22-4.588-10.22-10.22 0-5.632 4.588-10.22 10.22-10.22 5.632 0 10.22 4.588 10.22 10.22zM42 9.5C42 4.265 37.735 0 32.5 0S23 4.265 23 9.5s4.265 9.5 9.5 9.5S42 14.735 42 9.5zm-15.705 0a6.196 6.196 0 0 1 6.188-6.188A6.196 6.196 0 0 1 38.672 9.5a6.196 6.196 0 0 1-6.189 6.188A6.196 6.196 0 0 1 26.295 9.5z"/>
    </g>
</svg>
