<svg xmlns="http://www.w3.org/2000/svg" width="71" height="81" viewBox="0 0 71 81">
    <g fill="none" fill-rule="evenodd">
        <path fill="#373737" fill-rule="nonzero" d="M21 31.786c0 .629.242 1.219.68 1.662l.82.831A5.719 5.719 0 0 0 26.598 36a5.721 5.721 0 0 0 4.1-1.72l5.773-5.856a12.548 12.548 0 0 0 8.157 2.992h.006c3.407-.003 6.614-1.35 9.026-3.798a1.186 1.186 0 0 0 0-1.662 1.147 1.147 0 0 0-1.64 0c-1.975 2.003-4.6 3.108-7.387 3.109h-.004c-2.785 0-5.404-1.1-7.374-3.097a1.149 1.149 0 0 0-1.639 0l-6.56 6.65c-1.311 1.33-3.603 1.33-4.917 0l-.82-.832 13.936-14.13c1.3-1.317 2.534-1.317 4.098-1.317 1.674 0 3.76 0 5.738-2.007l3.279-3.325a1.186 1.186 0 0 0 0-1.662 1.147 1.147 0 0 0-1.64 0l-3.278 3.325c-1.3 1.318-2.535 1.318-4.099 1.318-1.674 0-3.758 0-5.737 2.006L21.682 30.123A2.35 2.35 0 0 0 21 31.786z"/>
        <path fill="#EE1E4C" fill-rule="nonzero" d="M12.5 13c1.379 0 2.5-1.121 2.5-2.5S13.879 8 12.5 8a2.503 2.503 0 0 0-2.5 2.5c0 1.379 1.121 2.5 2.5 2.5z"/>
        <path fill="#373737" fill-rule="nonzero" d="M23.364 16.122l3.514 3.514c.244.244.562.364.879.364a1.241 1.241 0 0 0 .879-2.121l-3.515-3.515a1.242 1.242 0 1 0-1.757 1.758z"/>
        <path fill="#EE1E4C" fill-rule="nonzero" d="M61.5 9C62.878 9 64 7.879 64 6.5S62.878 4 61.5 4A2.503 2.503 0 0 0 59 6.5C59 7.879 60.122 9 61.5 9z"/>
        <path fill="#373737" fill-rule="nonzero" d="M62.152 24.347c-1.76 1.92-2.363 5.05-2.947 8.076-.517 2.685-1.053 5.465-2.357 6.888l-1.531 1.671a1.261 1.261 0 0 0 0 1.672c.212.231.489.346.766.346.276 0 .553-.115.765-.346l1.531-1.672c1.758-1.92 2.361-5.047 2.945-8.072.518-2.688 1.055-5.467 2.359-6.892a1.259 1.259 0 0 0 0-1.671 1.018 1.018 0 0 0-1.531 0zM70.676 24.996L52.668 5.87l3.64-3.866a1.225 1.225 0 0 0 0-1.66 1.06 1.06 0 0 0-1.563 0l-4.42 4.696a1.225 1.225 0 0 0 0 1.66l18.788 19.956c.216.229.499.344.782.344.282 0 .565-.115.78-.344a1.225 1.225 0 0 0 0-1.66zM44.536 34.402a1.142 1.142 0 0 0-1.617 0 1.15 1.15 0 0 0 0 1.623l12.126 12.166c.892.895.892 2.35 0 3.245a2.288 2.288 0 0 1-3.234 0L39.684 39.27a1.14 1.14 0 0 0-1.616 0 1.148 1.148 0 0 0 0 1.622l15.36 15.41c.892.896.892 2.351 0 3.245a2.285 2.285 0 0 1-3.234 0l-14.551-14.6a1.14 1.14 0 0 0-1.617 0 1.148 1.148 0 0 0 0 1.623l12.935 12.977c.892.894.892 2.35 0 3.245-.865.867-2.37.867-3.234-.001l-1.617-1.622h-.002L31.6 50.625a1.14 1.14 0 0 0-1.617 0 1.149 1.149 0 0 0 0 1.622l10.51 10.544c.432.434.67 1.01.67 1.623s-.238 1.188-.67 1.622a2.284 2.284 0 0 1-3.234-.001L17.812 46.543c-2.965-2.975-3.608-6.725-4.177-10.034-.477-2.784-.93-5.413-2.683-7.173a1.14 1.14 0 0 0-1.617 0 1.148 1.148 0 0 0 0 1.622c1.24 1.245 1.615 3.42 2.047 5.941.594 3.464 1.335 7.776 4.813 11.265l19.448 19.494A4.552 4.552 0 0 0 38.876 69a4.559 4.559 0 0 0 3.233-1.342 4.572 4.572 0 0 0 1.255-2.352c1.676.811 3.858.469 5.213-.893a4.568 4.568 0 0 0 1.255-2.353c1.7.82 3.806.52 5.213-.892a4.602 4.602 0 0 0 0-6.488l-.433-.436a4.555 4.555 0 0 0 2.051-1.186 4.606 4.606 0 0 0 0-6.489L44.536 34.402zM22.676 10.3l-6.632-6.96a1.067 1.067 0 0 0-1.562 0 1.2 1.2 0 0 0 0 1.64l5.85 6.14-18.008 18.9a1.2 1.2 0 0 0 0 1.64c.216.226.499.34.781.34.283 0 .566-.114.782-.34l18.789-19.72a1.2 1.2 0 0 0 0-1.64zM29.333 66.51c-.635.334-1.718.374-2.694-.602-.976-.98-.968-2.119-.651-2.614.314-.491.21-1.14-.245-1.506a1.133 1.133 0 0 0-1.52.082c-.889.89-2.335.89-3.221 0a2.293 2.293 0 0 1 0-3.23c.223-.223.333-.516.333-.808a1.138 1.138 0 0 0-1.944-.807l-.805.807c-.887.89-2.334.89-3.22 0a2.292 2.292 0 0 1 0-3.23l.804-.807c.406-.405.447-1.05.098-1.504A1.138 1.138 0 0 0 14.795 52c-.62.359-1.71.316-2.65-.626-1-1.002-.996-2.113-.674-2.582a1.144 1.144 0 0 0-.29-1.588 1.135 1.135 0 0 0-1.584.291c-.922 1.339-.897 3.655.937 5.494.722.723 1.508 1.154 2.282 1.361a4.562 4.562 0 0 0-.396 1.868 4.54 4.54 0 0 0 1.335 3.23 4.549 4.549 0 0 0 4.32 1.202 4.555 4.555 0 0 0 5.493 4.071c.14.946.598 1.936 1.46 2.802C26.083 68.578 27.313 69 28.436 69a4.23 4.23 0 0 0 1.955-.467c.557-.292.772-.982.48-1.542a1.137 1.137 0 0 0-1.537-.48z"/>
        <ellipse cx="30" cy="79" fill="#DFDFDF" rx="30" ry="2"/>
    </g>
</svg>
