<svg xmlns="http://www.w3.org/2000/svg" width="60" height="77" viewBox="0 0 60 77">
    <g fill="none" fill-rule="evenodd">
        <path fill="#373737" fill-rule="nonzero" d="M49.908 16.531l1.972-1.993 1.508 1.524c.232.235.58.352.812.352.232 0 .58-.118.812-.352a1.142 1.142 0 0 0 0-1.641l-4.64-4.69a1.113 1.113 0 0 0-1.624 0 1.142 1.142 0 0 0 0 1.641l1.508 1.525-2.088 2.11c-3.364-2.462-7.192-4.22-11.368-5.041V7.035h1.16c1.972 0 3.48-1.525 3.48-3.518C41.44 1.524 39.932 0 37.96 0H24.04c-1.972 0-3.48 1.524-3.48 3.517 0 1.993 1.508 3.518 3.48 3.518h1.16v2.93c-4.176.821-8.004 2.58-11.368 5.042l-2.088-2.11 1.508-1.525a1.142 1.142 0 0 0 0-1.641 1.113 1.113 0 0 0-1.624 0L7.22 14.186a1.142 1.142 0 0 0 0 1.642c.232.234.58.351.812.351.232 0 .58-.117.812-.351l1.276-1.29 1.972 1.993C5.944 21.924 2 29.897 2 38.69 2 54.869 14.992 68 31 68s29-13.131 29-29.31c0-8.794-3.944-16.766-10.092-22.159zM24.04 4.69c-.696 0-1.16-.47-1.16-1.173 0-.703.464-1.172 1.16-1.172h13.92c.696 0 1.16.469 1.16 1.172 0 .704-.464 1.173-1.16 1.173h-2.32c-.696 0-1.16.469-1.16 1.172v3.752c-1.16-.118-2.32-.235-3.48-.235-1.16 0-2.32.117-3.48.235v-2.58H31c.696 0 1.16-.468 1.16-1.172 0-.703-.464-1.172-1.16-1.172h-6.96zM31 65.655c-14.732 0-26.68-12.076-26.68-26.965C4.32 23.8 16.268 11.724 31 11.724S57.68 23.8 57.68 38.69 45.732 65.655 31 65.655z"/>
        <path fill="#EE1E4C" fill-rule="nonzero" d="M51.952 37.905c-.628 0-1.047.438-1.047 1.095C50.905 50.5 42 59.81 31 59.81c-11 0-19.905-9.31-19.905-20.81C11.095 27.5 20 18.19 31 18.19c.629 0 1.048-.438 1.048-1.095S31.628 16 31 16C18.848 16 9 26.295 9 39s9.848 23 22 23 22-10.295 22-23c0-.657-.419-1.095-1.048-1.095z"/>
        <path fill="#373737" fill-rule="nonzero" d="M39.679 28.364c-.429-.485-1.072-.485-1.5 0l-4.822 5.465a5.27 5.27 0 0 0-3-.972c-3 0-5.357 2.672-5.357 6.072S27.357 45 30.357 45s5.357-2.671 5.357-6.071a7.185 7.185 0 0 0-.857-3.4l4.822-5.465a1.285 1.285 0 0 0 0-1.7zm-9.322 14.207c-1.821 0-3.214-1.578-3.214-3.642 0-2.065 1.393-3.643 3.214-3.643.536 0 .964.121 1.393.364l-2.143 2.428a1.285 1.285 0 0 0 0 1.7c.215.243.536.365.75.365.214 0 .536-.122.75-.364l2.143-2.429c.214.486.321.971.321 1.579 0 2.064-1.392 3.642-3.214 3.642z"/>
        <ellipse cx="30" cy="75" fill="#DFDFDF" rx="30" ry="2"/>
    </g>
</svg>
