<svg xmlns="http://www.w3.org/2000/svg" width="60" height="86" viewBox="0 0 60 86">
    <g fill="none" fill-rule="evenodd">
        <path fill="#373737" fill-rule="nonzero" d="M29.5 25C36.393 25 42 19.393 42 12.5S36.393 0 29.5 0 17 5.607 17 12.5 22.607 25 29.5 25zm0-22.466c5.495 0 9.966 4.47 9.966 9.966 0 5.495-4.47 9.966-9.966 9.966-5.495 0-9.966-4.47-9.966-9.966 0-5.496 4.47-9.966 9.966-9.966zM29.5 29.545c10.043 0 18.29 7.923 18.94 17.91H19.334c-.695 0-1.259.57-1.259 1.272 0 .703.564 1.273 1.26 1.273H49.74c.695 0 1.259-.57 1.259-1.273C51 36.747 41.355 27 29.5 27S8 36.747 8 48.727C8 49.43 8.564 50 9.26 50h5.037c.695 0 1.26-.57 1.26-1.273s-.565-1.272-1.26-1.272H10.56c.65-9.987 8.897-17.91 18.94-17.91zM18.19 61.153l-5.33-.886-2.498-4.75A.973.973 0 0 0 9.5 55c-.362 0-.694.2-.861.518L6.14 60.267l-5.33.886a.97.97 0 0 0-.763.652.956.956 0 0 0 .23.972l3.787 3.821-.797 5.297a.959.959 0 0 0 .39.921.979.979 0 0 0 1.004.083L9.5 70.512l4.838 2.387a.98.98 0 0 0 1.004-.083.959.959 0 0 0 .39-.92l-.797-5.298 3.787-3.821a.956.956 0 0 0 .23-.972.968.968 0 0 0-.763-.652zm-4.98 4.439a.957.957 0 0 0-.268.816l.593 3.944-3.602-1.778a.98.98 0 0 0-.866 0l-3.602 1.778.593-3.944a.957.957 0 0 0-.268-.816l-2.819-2.846 3.969-.66c.3-.05.56-.237.7-.504l1.86-3.536 1.86 3.536c.14.267.4.454.7.504l3.97.66-2.82 2.846zM38.19 61.153l-5.33-.886-2.498-4.75A.973.973 0 0 0 29.5 55c-.362 0-.694.2-.862.518l-2.497 4.749-5.33.886a.97.97 0 0 0-.763.652.956.956 0 0 0 .23.972l3.786 3.821-.796 5.297a.959.959 0 0 0 .39.921.979.979 0 0 0 1.004.083l4.838-2.387 4.838 2.387a.98.98 0 0 0 1.004-.083.959.959 0 0 0 .39-.92l-.796-5.298 3.786-3.821a.956.956 0 0 0 .23-.972.97.97 0 0 0-.763-.652zm-4.98 4.439a.957.957 0 0 0-.268.816l.593 3.944-3.602-1.778a.979.979 0 0 0-.866 0l-3.602 1.778.593-3.944a.957.957 0 0 0-.268-.816l-2.819-2.846 3.968-.66c.301-.05.56-.237.701-.504l1.86-3.536 1.86 3.536c.14.268.4.454.7.504l3.969.66-2.82 2.846zM58.952 61.805a.969.969 0 0 0-.763-.652l-5.33-.886-2.497-4.75A.973.973 0 0 0 49.5 55c-.362 0-.694.2-.862.518l-2.497 4.749-5.33.886a.97.97 0 0 0-.763.652.956.956 0 0 0 .23.972l3.786 3.821-.796 5.297a.959.959 0 0 0 .39.921.979.979 0 0 0 1.004.083l4.838-2.387 4.838 2.387a.98.98 0 0 0 1.004-.083.959.959 0 0 0 .39-.92l-.797-5.298 3.786-3.821a.956.956 0 0 0 .231-.972zm-5.742 3.787a.957.957 0 0 0-.268.816l.593 3.944-3.602-1.778a.979.979 0 0 0-.866 0l-3.602 1.778.593-3.944a.957.957 0 0 0-.268-.816l-2.819-2.846 3.969-.66c.3-.05.56-.237.7-.504l1.86-3.536 1.86 3.536c.14.267.4.454.7.504l3.97.66-2.82 2.846z"/>
        <path fill="#EE1E4C" fill-rule="nonzero" d="M29.5 18c1.609 0 3.14-.708 4.199-1.942a1.254 1.254 0 0 0-.121-1.753 1.217 1.217 0 0 0-1.731.122 3.094 3.094 0 0 1-2.347 1.088 3.094 3.094 0 0 1-2.347-1.088 1.217 1.217 0 0 0-1.73-.122 1.253 1.253 0 0 0-.122 1.753A5.536 5.536 0 0 0 29.5 18z"/>
        <ellipse cx="30" cy="84" fill="#DFDFDF" rx="30" ry="2"/>
    </g>
</svg>
