<svg xmlns="http://www.w3.org/2000/svg" width="64" height="77" viewBox="0 0 64 77">
    <g fill="none" fill-rule="evenodd">
        <path fill="#373737" fill-rule="nonzero" d="M62.97 28.033a1.538 1.538 0 0 0-2.147-.263 1.507 1.507 0 0 0-.265 2.128c.51.649.51 1.555 0 2.204A33.557 33.557 0 0 1 46.53 42.589c2.864-3.04 4.617-7.116 4.617-11.59 0-4.455-1.739-8.516-4.578-11.55a33.619 33.619 0 0 1 9.732 5.958 1.538 1.538 0 0 0 2.158-.13 1.507 1.507 0 0 0-.13-2.14 36.335 36.335 0 0 0-1.064-.899C50.729 16.926 42.467 14 34 14c-11.395 0-21.954 5.115-28.97 14.033a4.785 4.785 0 0 0 0 5.934C12.047 42.885 22.606 48 34 48c11.394 0 21.953-5.115 28.97-14.033a4.786 4.786 0 0 0 0-5.934zM7.441 32.102a1.778 1.778 0 0 1 0-2.204 33.556 33.556 0 0 1 14.025-10.486c-2.86 3.038-4.614 7.113-4.614 11.588 0 4.473 1.753 8.55 4.614 11.588A33.556 33.556 0 0 1 7.442 32.102zm26.577 12.866h-.037C26.22 44.958 19.91 38.696 19.91 31c0-7.697 6.31-13.958 14.07-13.968h.033c7.763.007 14.075 6.27 14.075 13.968 0 7.696-6.31 13.958-14.07 13.968z"/>
        <path fill="#EE1E4C" fill-rule="nonzero" d="M33.5 25a6.507 6.507 0 0 0-6.5 6.5c0 3.584 2.916 6.5 6.5 6.5s6.5-2.916 6.5-6.5-2.916-6.5-6.5-6.5zm0 9.936a3.44 3.44 0 0 1-3.436-3.436 3.44 3.44 0 0 1 3.436-3.436 3.44 3.44 0 0 1 3.436 3.436 3.44 3.44 0 0 1-3.436 3.436z"/>
        <path fill="#373737" fill-rule="nonzero" d="M34.5 0c-.829 0-1.5.7-1.5 1.565v5.87C33 8.299 33.671 9 34.5 9S36 8.3 36 7.435v-5.87C36 .701 35.328 0 34.5 0zM34.5 55c-.829 0-1.5.7-1.5 1.565v5.87c0 .864.671 1.565 1.5 1.565s1.5-.7 1.5-1.565v-5.87c0-.864-.672-1.565-1.5-1.565zM55.621 9.379a1.294 1.294 0 0 0-1.829 0l-2.413 2.413a1.294 1.294 0 0 0 1.829 1.83l2.413-2.414a1.294 1.294 0 0 0 0-1.83zM15.621 50.379a1.294 1.294 0 0 0-1.829 0l-2.413 2.413a1.294 1.294 0 0 0 1.829 1.83l2.413-2.414a1.294 1.294 0 0 0 0-1.83zM15.621 11.792L13.208 9.38a1.293 1.293 0 0 0-1.83 1.829l2.414 2.413a1.29 1.29 0 0 0 1.83 0 1.294 1.294 0 0 0 0-1.829zM55.621 52.792l-2.413-2.413a1.294 1.294 0 0 0-1.83 1.829l2.414 2.413a1.29 1.29 0 0 0 1.83 0 1.294 1.294 0 0 0 0-1.829z"/>
        <ellipse cx="30" cy="75" fill="#DFDFDF" rx="30" ry="2"/>
    </g>
</svg>
