<svg viewBox="0 0 29 23"><g fill="#08080a"><path d="M26.955 20.647c-.06.17-.34.352-.66.352H1.96c-.32 0-.6-.182-.66-.352-.073-.209.242-.485.34-.564 1.14-.923 1.36-1.028 1.47-2.04h22.034c.111 1.012.33 1.117 1.47 2.04.099.08.414.355.34.564M3.122 13.441c1.417-3.644 8.37-5.063 8.44-5.077l.52-.103V6.11c0-.108.018-.152.016-.154.01-.005.075-.04.257-.04H15.902c.187.001.249.038.25.034.004.006.023.05.023.16v2.15l.52.103c.018.004 1.814.365 3.764 1.199 1.733.74 3.95 2.015 4.675 3.878.967 2.485.675 3.11.606 3.21-.036.053-.109.101-.395.101H2.91c-.286 0-.359-.048-.395-.101-.068-.1-.36-.725.606-3.21m24.305 5.638c-.467-.378-.781-.472-.887-.654-.07-.121-.095-.295-.126-.657.141-.094.276-.22.391-.388.542-.793.394-2.193-.468-4.407-1.438-3.697-7.102-5.332-8.871-5.759V6.111c0-.855-.496-1.392-1.338-1.472v-.682h1.457c.27 0 .49-.216.496-.486l.003-.147c0-.053.016-1.16-.947-2.141C16.434.465 15.422 0 14.128 0v1.29c.927 0 1.625.332 2.077.785.24.241.382.52.466.764h-1.66v1.788H13.246V2.839h-1.662a2 2 0 01.457-.753c.451-.46 1.154-.795 2.087-.795V0c-1.293 0-2.306.465-3.01 1.183-.961.982-.946 2.088-.945 2.141l.002.147c.006.27.227.486.496.486h1.457v.682c-.842.08-1.337.617-1.337 1.472v1.103c-1.77.427-7.434 2.062-8.872 5.759-.861 2.214-1.01 3.614-.468 4.407.115.168.25.294.392.388-.031.362-.056.536-.126.657-.106.182-.42.276-.888.654-1.018.824-.86 1.672-.744 1.999.252.713 1.024 1.212 1.876 1.212h24.334c.852 0 1.624-.499 1.877-1.212.115-.327.274-1.175-.745-1.999" fill="#3E4244"></path></g></svg>